<?xml version="1.0" encoding="UTF-8"?>
<svg version="1.1" xmlns="http://www.w3.org/2000/svg" width="144" height="195">
<path d="M0 0 C2.35398239 2.24188799 3.28405789 3.60245732 4.75 6.375 C7.00683306 10.36672753 9.40640948 11.59775093 13.5625 13.4375 C20.78794996 16.73067191 23.6822346 20.765905 26.64453125 27.984375 C29.75216866 37.12281559 29.24721048 44.62276915 25.625 53.5 C25.13 54.49 25.13 54.49 24.625 55.5 C24.47079395 57.24766859 24.35050036 58.99842223 24.25 60.75 C23.85299699 65.26516855 23.4506322 68.79744746 20.625 72.5 C16.99683457 73.6338017 15.23902347 73.70467449 11.625 72.5 C11.356875 73.28375 11.08875 74.0675 10.8125 74.875 C9.625 77.5 9.625 77.5 6.625 79.5 C0.36145942 80.4512675 -4.670049 78.98943316 -10.375 76.5 C-11.365 78.81 -12.355 81.12 -13.375 83.5 C-12.52164063 83.76167969 -11.66828125 84.02335937 -10.7890625 84.29296875 C-7.25375334 85.54286638 -4.07769991 87.08745097 -0.75 88.8125 C4.72410441 91.62376372 10.2480792 94.06636169 16.00390625 96.26171875 C22.58516953 99.37089977 25.79491506 103.77228057 28.375 110.4375 C29.30012935 118.06981717 28.11048138 122.73256899 24.625 129.5 C24.25117188 130.24765625 23.87734375 130.9953125 23.4921875 131.765625 C23.20601563 132.33796875 22.91984375 132.9103125 22.625 133.5 C23.04652344 134.12648437 23.46804687 134.75296875 23.90234375 135.3984375 C24.72412109 136.62433594 24.72412109 136.62433594 25.5625 137.875 C26.38041016 139.09316406 26.38041016 139.09316406 27.21484375 140.3359375 C29.58610169 143.97493167 29.71941152 146.15707031 29.625 150.5 C27.35546875 150.375 27.35546875 150.375 24.625 149.5 C22.67578125 146.8125 22.67578125 146.8125 20.9375 143.5 C19.01001835 139.28004821 19.01001835 139.28004821 15.625 136.5 C14.92375 136.809375 14.2225 137.11875 13.5 137.4375 C9.69334608 138.84430688 6.67025681 138.63712735 2.625 138.5 C2.295 137.18 1.965 135.86 1.625 134.5 C2.181875 134.34144531 2.73875 134.18289062 3.3125 134.01953125 C10.07595384 131.95165094 16.35513278 129.62106743 20.625 123.75 C22.38729453 118.02254279 22.44000533 113.70001438 20.3515625 108.0625 C17.11884061 102.72911829 11.10746424 101.13164332 5.5625 98.9375 C-8.91459022 93.01387821 -22.06621357 87.43682341 -31.05078125 74.1015625 C-32.38226651 72.20334179 -32.38226651 72.20334179 -35.375 71.5 C-35.79273682 71.89268066 -36.21047363 72.28536133 -36.64086914 72.68994141 C-38.57161401 74.50319511 -40.50454272 76.31410505 -42.4375 78.125 C-43.42266602 79.05119141 -43.42266602 79.05119141 -44.42773438 79.99609375 C-48.6509158 83.94882513 -52.95720045 87.76583913 -57.375 91.5 C-58.695 90.84 -60.015 90.18 -61.375 89.5 C-59.92720117 84.06818735 -56.22086984 81.18279042 -52.1875 77.5625 C-51.53974609 76.96759766 -50.89199219 76.37269531 -50.22460938 75.75976562 C-44.20078809 70.25347544 -38.24836824 64.91859387 -31.375 60.5 C-30.13181106 59.48685876 -30.13181106 59.48685876 -30.32495117 57.38964844 C-30.35564697 56.4721582 -30.38634277 55.55466797 -30.41796875 54.609375 C-30.94299466 32.35145836 -30.94299466 32.35145836 -26.375 22.5 C-25.88 22.005 -25.88 22.005 -25.375 21.5 C-25.41625 20.345 -25.4575 19.19 -25.5 18 C-25.55717365 11.63085564 -23.96211273 6.40453528 -19.875 1.5 C-14.32344889 -2.94124089 -6.31760389 -2.80782395 0 0 Z M-17.375 7.5 C-18.90345195 9.38600393 -18.90345195 9.38600393 -19.375 11.5 C-19.07694993 13.69747131 -19.07694993 13.69747131 -18.375 15.5 C-17.653125 15.04625 -16.93125 14.5925 -16.1875 14.125 C-11.03313594 11.49165662 -5.04124477 11.21458576 0.625 10.5 C-1.9041548 5.89200107 -1.9041548 5.89200107 -6.375 3.5 C-11.14296311 2.74716372 -13.69902211 4.55921769 -17.375 7.5 Z M-21.375 25.5 C-24.23023976 30.37690281 -24.72235075 34.94238803 -24.375 40.5 C-23.87871094 40.21125 -23.38242188 39.9225 -22.87109375 39.625 C-18.18571361 37.06448865 -14.82686344 35.73482618 -9.375 36.5 C-7.06957249 37.45340318 -4.83497755 38.51902259 -2.58203125 39.58984375 C0.70117068 40.94380136 3.1416807 41.11470341 6.625 40.5 C8.92752228 38.35157455 8.92752228 38.35157455 10.625 35.5 C13.33448075 31.74168799 15.14941136 29.86754097 19.625 28.5 C18.27887724 23.78857034 15.77274532 20.97334813 11.625 18.5 C-0.80016886 13.4371471 -12.41737975 14.96533393 -21.375 25.5 Z M19.625 33.5 C16.89842162 36.14867614 14.33370428 38.79753401 11.9375 41.75 C9.04049142 45.19509128 8.54053114 45.41969025 4.0625 45.8125 C0.57369207 45.79353909 -1.80788405 45.01657759 -4.9375 43.5 C-8.93569778 41.56983555 -11.87375809 40.79392284 -16.375 41.5 C-20.93893961 44.66940251 -22.82926178 49.70582029 -23.86328125 55 C-24.01152344 55.86625 -24.15976563 56.7325 -24.3125 57.625 C-25.0688523 61.86574451 -26.26313912 64.38813912 -29.375 67.5 C-24.06070186 73.67252553 -24.06070186 73.67252553 -18.375 79.5 C-16.725 76.53 -15.075 73.56 -13.375 70.5 C-9.42893805 70.90265938 -6.39106337 71.49279918 -2.75 73.125 C0.44233459 74.65917162 0.44233459 74.65917162 3.375 74.5625 C6.64774467 73.01703724 7.30670333 70.76104967 8.625 67.5 C10.5740625 67.5309375 10.5740625 67.5309375 12.5625 67.5625 C13.91665633 67.58399454 15.27256083 67.57148199 16.625 67.5 C18.50165245 65.62334755 18.19715401 62.39871661 18.5 59.875 C19.53494321 52.10508544 19.53494321 52.10508544 21.25 48.8125 C23.22298206 44.05940685 22.87295792 39.57854561 22.625 34.5 C21.635 34.17 20.645 33.84 19.625 33.5 Z " fill="#0360F5" transform="translate(107.375,1.5)"/>
<path d="M0 0 C-0.50622456 4.1149015 -1.47369484 5.93882047 -4.53515625 8.70703125 C-5.26283203 9.37669922 -5.99050781 10.04636719 -6.74023438 10.73632812 C-7.50658203 11.42146484 -8.27292969 12.10660156 -9.0625 12.8125 C-10.55456715 14.17188114 -12.04545595 15.53255678 -13.53515625 16.89453125 C-14.64515991 17.90338379 -14.64515991 17.90338379 -15.77758789 18.93261719 C-18.66373262 21.61743247 -21.42912266 24.40981253 -24.1796875 27.23266602 C-26.00951127 29.00923445 -27.91795309 30.5700023 -29.9375 32.125 C-32.58991939 34.31927422 -32.96056707 34.85804146 -33.9375 38.375 C-33.958125 39.24125 -33.97875 40.1075 -34 41 C-27.92733326 45.76003981 -21.56407044 49.8910373 -15 53.9375 C-12.88272322 55.2511582 -10.76553861 56.56496496 -8.6484375 57.87890625 C-7.56143555 58.55195801 -6.47443359 59.22500977 -5.35449219 59.91845703 C-1.95230059 62.02959863 1.44324752 64.15098624 4.8359375 66.27734375 C5.93164062 66.9638501 7.02734375 67.65035645 8.15625 68.35766602 C10.27360648 69.68470763 12.39079863 71.0120115 14.5078125 72.33959961 C15.46171875 72.93651611 16.415625 73.53343262 17.3984375 74.1484375 C18.24067871 74.67614746 19.08291992 75.20385742 19.95068359 75.74755859 C21.95996497 77.01532775 21.95996497 77.01532775 24 78 C23.938125 76.783125 23.87625 75.56625 23.8125 74.3125 C23.76029297 73.28576172 23.76029297 73.28576172 23.70703125 72.23828125 C22.06968253 67.05485132 16.80112858 64.01708026 12.39453125 61.2578125 C11.32783203 60.58363281 10.26113281 59.90945312 9.16210938 59.21484375 C8.05673828 58.52519531 6.95136719 57.83554688 5.8125 57.125 C1.52930339 54.43561008 -2.74323881 51.73105722 -7 49 C-7.9998291 48.36416992 -8.9996582 47.72833984 -10.02978516 47.07324219 C-10.94421387 46.46899414 -11.85864258 45.86474609 -12.80078125 45.2421875 C-13.61329346 44.71222168 -14.42580566 44.18225586 -15.26293945 43.63623047 C-16.12278442 42.82629639 -16.12278442 42.82629639 -17 42 C-17 40.68 -17 39.36 -17 38 C-15.28051758 36.35058594 -15.28051758 36.35058594 -12.83203125 34.734375 C-11.46038818 33.82848633 -11.46038818 33.82848633 -10.06103516 32.90429688 C-4.67662742 29.5546095 0.79752282 26.37902059 6.3125 23.25 C7.47747308 22.58508995 8.64218792 21.91972722 9.80664062 21.25390625 C11.93785602 20.03571588 14.07027332 18.81962374 16.2043457 17.60644531 C18.0669224 16.5361672 19.90622602 15.42432397 21.71948242 14.27246094 C24 13 24 13 26.3125 13.3125 C26.869375 13.539375 27.42625 13.76625 28 14 C27.78515625 16.32421875 27.78515625 16.32421875 27 19 C24.93359375 20.58203125 24.93359375 20.58203125 22.4375 21.8125 C21.61121094 22.23144531 20.78492188 22.65039062 19.93359375 23.08203125 C19.29550781 23.38496094 18.65742187 23.68789062 18 24 C18.15620316 24.59087402 18.31240631 25.18174805 18.4733429 25.79052734 C20.11887347 32.01969722 21.75632898 38.25095193 23.3894043 44.48339844 C23.99742072 46.7996821 24.60739785 49.1154521 25.21948242 51.43066406 C28.59949903 64.22111121 31.87203418 76.93367309 34 90 C40.6710674 90.07644383 47.34202063 90.12876442 54.01342773 90.16479492 C56.28007224 90.17982508 58.54668794 90.20025482 60.81323242 90.22631836 C64.08259213 90.26295588 67.35156527 90.2797846 70.62109375 90.29296875 C71.62458359 90.30845261 72.62807343 90.32393646 73.66197205 90.33988953 C80.17802019 90.34142703 87.38199456 90.06646983 92.58811951 85.65397644 C97.13148619 80.50590986 98.26086239 75.91268813 98.125 69.1875 C98.10695312 68.02605469 98.08890625 66.86460937 98.0703125 65.66796875 C98.04710937 64.78753906 98.02390625 63.90710938 98 63 C99.32 62.67 100.64 62.34 102 62 C105.54597035 67.31895553 104.69431349 73.844167 104 80 C101.69089928 86.59621786 97.89881468 90.79769837 91.83203125 94.16015625 C88.35106754 95.75590721 85.56725742 96.1409456 81.78173828 96.19287109 C80.71698273 96.20893402 79.65222717 96.22499695 78.5552063 96.24154663 C73.69582793 96.28601565 68.83658491 96.32704306 63.97705078 96.35009766 C61.41250547 96.36667667 58.84800673 96.39399176 56.28369141 96.43212891 C52.58732113 96.48681597 48.8920325 96.50875837 45.1953125 96.5234375 C44.04934601 96.54610687 42.90337952 96.56877625 41.72268677 96.59213257 C33.77904013 96.57099492 33.77904013 96.57099492 29.80029297 93.65478516 C28 91 28 91 27 88 C25.04547015 86.44408433 25.04547015 86.44408433 22.56640625 84.98828125 C21.62015381 84.40328857 20.67390137 83.8182959 19.69897461 83.21557617 C18.66393799 82.58756104 17.62890137 81.9595459 16.5625 81.3125 C15.49588135 80.65548096 14.4292627 79.99846191 13.33032227 79.3215332 C10.47419184 77.56402644 7.61382943 75.81389733 4.75061035 74.06799316 C-22.64016344 57.35773029 -22.64016344 57.35773029 -32 51.1875 C-32.89827515 50.60198364 -32.89827515 50.60198364 -33.81469727 50.00463867 C-37.17931708 47.7516038 -39.60589537 45.96354783 -40.44140625 41.80078125 C-40.68786622 36.73642637 -40.3307355 33.70787349 -36.9375 29.8125 C-35.64566533 28.52066533 -34.33297649 27.24933875 -33 26 C-31.85388654 24.81277036 -30.70804554 23.62527763 -29.5625 22.4375 C-27.22222806 20.12829362 -24.81049963 17.94921869 -22.3125 15.8125 C-17.98990316 12.10135104 -14.01536422 8.07120183 -10.03637695 3.99926758 C-4.71336466 -1.4140094 -4.71336466 -1.4140094 0 0 Z M5.55078125 30.40625 C4.70322266 30.90253906 3.85566406 31.39882812 2.98242188 31.91015625 C2.10134766 32.43480469 1.22027344 32.95945312 0.3125 33.5 C-0.58017578 34.02464844 -1.47285156 34.54929687 -2.39257812 35.08984375 C-4.59853865 36.38746759 -6.80076113 37.6910272 -9 39 C-4.39005377 44.21861878 1.26747688 47.62400782 7.125 51.3125 C8.62740234 52.28026367 8.62740234 52.28026367 10.16015625 53.26757812 C11.12050781 53.87666016 12.08085938 54.48574219 13.0703125 55.11328125 C14.38153076 55.94533081 14.38153076 55.94533081 15.71923828 56.79418945 C18.01204391 58.23369382 18.01204391 58.23369382 21 58 C18.36 48.1 15.72 38.2 13 28 C9.58321177 28 8.44894072 28.69458534 5.55078125 30.40625 Z " fill="#0360F5" transform="translate(40,99)"/>
<path d="M0 0 C4.77632496 2.80025704 8.70328623 7.10722766 10.5625 12.375 C12.02840695 19.70453475 11.40801789 25.0657955 7.75 31.625 C3.65638921 36.77125357 -0.67988239 39.88262252 -7.26953125 40.74609375 C-14.38194446 40.90456167 -19.04009731 40.15877686 -24.4375 35.375 C-29.21118189 30.71119825 -31.48139243 26.32703815 -31.875 19.6875 C-31.71874035 13.14412725 -29.43862018 7.23821313 -24.65234375 2.671875 C-17.60578459 -2.53449992 -8.08312199 -3.71761908 0 0 Z M-24.4375 12.375 C-26.294804 16.089608 -25.88032906 20.32093118 -25.4375 24.375 C-23.0952461 29.23968118 -20.19001622 31.858962 -15.4375 34.375 C-9.79515002 35.91382272 -6.52347277 35.20054043 -1.4375 32.375 C2.0767737 29.4073911 4.53234057 26.9077015 5.5625 22.375 C5.6510563 16.40851955 4.6691555 11.90285094 0.5625 7.375 C-9.14203646 0.85793681 -17.63421474 2.97045861 -24.4375 12.375 Z " fill="#0361F6" transform="translate(106.4375,142.625)"/>
<path d="M0 0 C1.65 0.33 3.3 0.66 5 1 C5.33 2.32 5.66 3.64 6 5 C7.65 4.67 9.3 4.34 11 4 C11.33 5.65 11.66 7.3 12 9 C11.01 9.33 10.02 9.66 9 10 C9 10.66 9 11.32 9 12 C9.99 12.33 10.98 12.66 12 13 C11.67 14.65 11.34 16.3 11 18 C9.35 17.67 7.7 17.34 6 17 C5.01 19.475 5.01 19.475 4 22 C2.68 22 1.36 22 0 22 C-0.33 20.35 -0.66 18.7 -1 17 C-2.98 17.33 -4.96 17.66 -7 18 C-7.6875 16.1875 -7.6875 16.1875 -8 14 C-6.5625 12.25 -6.5625 12.25 -5 11 C-5.515625 10.5875 -6.03125 10.175 -6.5625 9.75 C-7.2740625 8.88375 -7.2740625 8.88375 -8 8 C-7.6875 5.8125 -7.6875 5.8125 -7 4 C-4.03 4.495 -4.03 4.495 -1 5 C-0.67 3.35 -0.34 1.7 0 0 Z " fill="#0360F5" transform="translate(94,151)"/>
</svg>
