<svg xmlns="http://www.w3.org/2000/svg" version="1.1" xmlns:xlink="http://www.w3.org/1999/xlink" width="512" height="512" x="0" y="0" viewBox="0 0 53 53" style="enable-background:new 0 0 512 512" xml:space="preserve" class=""><g><path d="M38.582 26.366c.001-.027.013-.05.019-.076.006-.029.01-.057.02-.084a.493.493 0 0 1 .077-.127c.006-.008.01-.017.018-.024.013-.016.025-.032.04-.046l-1.545.721c-.184 4.06.448 7.517 1.798 9.747 1.352 2.215 3.016 7.62 4.173 11.763.13.476.063.963-.164 1.385h.693c.28 0 .538-.127.707-.349a.876.876 0 0 0 .15-.77c-.572-2.074-2.558-9.04-4.055-11.512-1.92-3.162-2.11-7.524-1.931-10.628zM42.509 3.375l4.473 13.875a5.08 5.08 0 0 1-2.633 6.146l1.881-.875a4.094 4.094 0 0 0 2.155-4.962L43.803 3.375zM12.743 33.395h.017c.036 0 .107.003.116 0 7.31-2.736 8.364-9.322 8.342-13.004v-.003c0-.046-.038-.098-.097-.132-.036-.02-.066-.043-.101-.063-.019-.009-.034-.021-.052-.032-2.468-1.438-3.725-3.359-4.337-4.732a.18.18 0 0 0-.136-.105c-2.089-.24-5.255-.242-7.383.002-.062.009-.102.071-.118.108-.618 1.394-1.901 3.372-4.485 4.834-.061.032-.092.076-.092.12-.023 3.69 1.029 10.283 8.326 13.007zm.074-14.05a4.934 4.934 0 0 1 4.929 4.93 4.934 4.934 0 0 1-4.929 4.927 4.934 4.934 0 0 1-4.928-4.928 4.934 4.934 0 0 1 4.928-4.928z" fill="#0354d5" opacity="1" data-original="#000000"></path><path d="M12.817 28.202c2.166 0 3.929-1.762 3.929-3.928s-1.763-3.928-3.929-3.928-3.928 1.762-3.928 3.928 1.762 3.928 3.928 3.928zm-2.034-3.938a.5.5 0 0 1 .707 0l.535.535 2.243-2.244a.5.5 0 1 1 .707.707l-2.596 2.597a.5.5 0 0 1-.707 0l-.89-.888a.5.5 0 0 1 0-.707zM20.803 42.97c.177.11 3.398 2.06 7.283 1.61a.506.506 0 0 1 .554.439.501.501 0 0 1-.44.554c-.448.052-.889.075-1.316.075-2.69 0-4.895-.925-5.956-1.466l-.542 4.454a.882.882 0 0 0 .216.69c.171.193.408.299.67.299h20.09c.28 0 .537-.127.706-.349a.876.876 0 0 0 .15-.77c-1.61-5.768-3.054-9.857-4.064-11.51-1.744-2.882-2.053-6.77-1.963-9.79l-7.802 3.638c-.441.515-2.626 2.912-5.055 2.912-.717 0-1.455-.208-2.176-.735-.798-.586-1.132-1.217-.994-1.875.259-1.236 2.252-2.026 3.528-2.412-.703-.641-1.462-1.527-1.29-2.239.068-.286.296-.653.99-.78 1.54-.28 2.614.049 3.073.243l10.444-4.735c.584-2.879 1.486-5.619 2.622-7.976-.754-.96-3.161-4.49-2.815-9.872h-2.623v4.634c0 1.39-1.131 2.52-2.521 2.52h-6.586a4.152 4.152 0 0 1-.374.184c-.972.444-1.693 1.28-1.926 2.23-.44 1.764.752 3.1 3.544 3.974a.501.501 0 0 1-.009.957c-.02.006-1.939.587-4.162 1.947.102.171.159.365.16.565.02 3.598-.943 9.778-7.096 13.074.392 2.513 1.529 4.992 3.315 7.19.819 1.017 1.636 1.819 2.365 2.32z" fill="#0354d5" opacity="1" data-original="#000000"></path><path d="M26.658 9.528h4.914c.839 0 1.52-.681 1.52-1.52V3.376H29.97c.062 1.202-.196 3.933-3.311 6.153zM24.865 29.457c-1.408.318-3.564 1.14-3.722 1.894-.062.3.295.634.606.864 2.629 1.92 5.908-2.053 5.941-2.093a.507.507 0 0 1 .177-.138l8.64-4.028c.018-.01.035-.02.055-.026l7.317-3.412a4.084 4.084 0 0 0 2.152-4.96L41.46 3.38h-3.751c-.398 5.851 2.749 9.423 2.782 9.459.02.022.028.052.043.077.015.024.031.046.042.073.005.014.017.025.021.04l1.381 4.552c.372 1.222-.236 2.547-1.415 3.083l-13.898 6.3a.493.493 0 0 1-.463-.026c-.027-.015-.594-.333-1.624-.333-.298 0-.634.027-1.007.095-.172.031-.22.072-.22.073.011.23.828 1.13 1.706 1.8a.498.498 0 0 1-.192.885z" fill="#0354d5" opacity="1" data-original="#000000"></path></g></svg>