<svg xmlns="http://www.w3.org/2000/svg" version="1.1" xmlns:xlink="http://www.w3.org/1999/xlink" width="512" height="512" x="0" y="0" viewBox="0 0 128 128" style="enable-background:new 0 0 512 512" xml:space="preserve" class=""><g><path d="M127 44.45c-2.6-14.63-13.67-39.38-38.87-39.38H88c-9.44 0-18.29 6.7-20.16 15.2-.29 1.31-.47 2.74-.65 4.11-.51 4-1 7.85-4 9.33a5.42 5.42 0 0 1-4.69-.14 7.52 7.52 0 0 1-4.15-4.77 66.56 66.56 0 0 1-1-26.44 1 1 0 0 0-.21-.84 1 1 0 0 0-.77-.35h-16.1a1 1 0 0 0-1 .78c-3 13.55-5 33.75 13.16 52.73 1.69 1.77 3.55 3.39 5.35 5a49.68 49.68 0 0 1 7.65 7.7c3.21 4.38 5 11.18 1.42 15.75-3.41 4.34-10.09 4.49-15.2 3.19-2.09-.52-4.18-1.26-6.21-2a43.31 43.31 0 0 0-10.85-2.81C19 80.51 8.91 88.92 4.12 97.67-.15 105.49 0 116.13.05 125.51v.34a1 1 0 0 0 1 1h12.69a1 1 0 0 0 1-.89c.1-1 .16-2.12.2-3.18a23 23 0 0 1 .61-5.18c1-3.15 2.72-7.53 6.35-9.22 5.13-2.38 10.61 1.4 15.91 5.06l2.19 1.5c18.3 12.17 46.74 9.64 66.16-5.87 15.06-12 21.81-33.44 21.81-52.3a71.76 71.76 0 0 0-.97-12.32zm-54 9.79a7 7 0 1 1 7 6.95 7 7 0 0 1-7-6.95zm5.4 27a3.21 3.21 0 1 1 3.2-3.21 3.21 3.21 0 0 1-3.25 3.23zm9 21.52a5.41 5.41 0 1 1 5.41-5.4 5.4 5.4 0 0 1-5.5 5.42zM101 69.4a3.2 3.2 0 1 1 3.2-3.2 3.21 3.21 0 0 1-3.2 3.2z" fill="#0463fa" opacity="1" data-original="#000000"></path></g></svg>